<svg width="25" height="50" viewBox="0 0 25 50" fill="none" xmlns="http://www.w3.org/2000/svg">
<g clip-path="url(#clip0_309_5)">
<rect x="9.01862" y="32.0518" width="6.52408" height="9.78613" fill="black"/>
<path d="M7.33585 33.3155C8.46663 32.1405 9.60541 31.5391 10.7522 31.5111C10.0989 32.1725 9.66094 32.8376 9.43818 33.5064C9.21542 34.1752 9.11728 35.0531 9.14376 36.1401C9.15598 36.6418 9.38569 37.3623 9.83289 38.3017C10.2801 39.241 10.7276 40.0698 11.1754 40.788C11.6232 41.5062 11.8466 41.8474 11.8457 41.8115C11.8667 41.6915 11.8958 41.5354 11.9329 41.3433C11.9701 41.1511 12.0687 40.7842 12.2288 40.2424C12.389 39.7006 12.5709 39.1942 12.7745 38.7231C12.9782 38.252 13.2679 37.7548 13.6436 37.2317C14.0193 36.7086 14.4307 36.2982 14.8776 36.0004C15.2421 35.7525 15.4295 35.3505 15.4399 34.7945C15.4502 34.2384 15.3347 33.6675 15.0934 33.0817C14.852 32.496 14.5517 31.9445 14.1925 31.4273C14.8375 31.4116 15.9056 32.0789 17.3967 33.429C17.8975 33.871 18.2714 34.3759 18.5183 34.9436C18.7652 35.5113 18.8942 36.0221 18.9053 36.476C18.9239 37.2406 18.7313 38.0431 18.3274 38.8836C17.9236 39.7242 17.371 40.4697 16.6697 41.1203C16.0739 41.6846 15.5952 42.276 15.2338 42.8944C14.8723 43.5128 14.6445 44.095 14.5502 44.6412C14.4559 45.1873 14.4242 45.723 14.4549 46.2481C14.4856 46.7733 14.5777 47.2432 14.7313 47.6578C14.8848 48.0724 15.0372 48.4392 15.1884 48.7582C15.3396 49.0773 15.4769 49.3189 15.6005 49.4833L15.7862 49.7477C15.6295 49.6917 15.4212 49.6072 15.1615 49.494C14.9017 49.3808 14.3996 49.13 13.6551 48.7418C12.9105 48.3535 12.2044 47.9464 11.5366 47.5204C10.8688 47.0945 10.1382 46.5415 9.34471 45.8616C8.55123 45.1817 7.89476 44.4836 7.3753 43.7671C6.65802 42.7806 6.10288 41.7034 5.70988 40.5357C5.31688 39.3679 5.12695 38.3177 5.14009 37.3851C5.15234 36.9067 5.31246 36.3649 5.62044 35.7598C5.92841 35.1547 6.22729 34.6663 6.51705 34.2947C6.80681 33.9231 7.07975 33.5967 7.33585 33.3155Z" fill="white"/>
</g>
<path d="M14.6578 29.4598V35.2106H10.0572V31.7601H8.90701C7.99188 31.7601 7.11424 31.3966 6.46714 30.7495C5.82005 30.1024 5.45651 29.2247 5.45651 28.3096V24.8591C5.45651 24.5541 5.57769 24.2615 5.79339 24.0458C6.00909 23.8301 6.30164 23.7089 6.60668 23.7089C6.91172 23.7089 7.20427 23.8301 7.41997 24.0458C7.63567 24.2615 7.75685 24.5541 7.75685 24.8591V28.3096C7.75685 28.9537 8.27442 29.4598 8.90701 29.4598H10.0572V17.9581C10.0572 17.348 10.2995 16.7629 10.7309 16.3315C11.1623 15.9001 11.7474 15.6578 12.3575 15.6578C12.9676 15.6578 13.5527 15.9001 13.9841 16.3315C14.4155 16.7629 14.6578 17.348 14.6578 17.9581V27.1594H15.808C16.1131 27.1594 16.4056 27.0383 16.6213 26.8226C16.837 26.6069 16.9582 26.3143 16.9582 26.0093V23.7089C16.9582 23.4039 17.0794 23.1114 17.2951 22.8957C17.5108 22.68 17.8033 22.5588 18.1083 22.5588C18.4134 22.5588 18.7059 22.68 18.9216 22.8957C19.1373 23.1114 19.2585 23.4039 19.2585 23.7089V26.0093C19.2585 26.9244 18.895 27.8021 18.2479 28.4492C17.6008 29.0963 16.7231 29.4598 15.808 29.4598H14.6578Z" fill="white"/>
<rect x="12.8109" y="9.01508" width="6.41344" height="4.66" fill="black"/>
<path d="M15.6842 12.9825C15.7679 12.9825 15.8489 12.969 15.9218 12.942L15.803 13.7706H15.0932L15.5115 12.9636C15.5682 12.9771 15.6249 12.9825 15.6842 12.9825ZM4.3212 5.12282C4.66128 5.12282 4.99057 5.1633 5.30636 5.23618C5.88396 4.19974 6.98787 3.50068 8.25643 3.50068C8.44267 3.50068 8.6235 3.51688 8.80164 3.54387C9.75711 1.45479 11.8624 0.00539845 14.305 0.00539845C17.3361 0.00539845 19.8462 2.23482 20.2861 5.14441C22.4751 5.35764 24.1836 7.20109 24.1836 9.44671C24.1836 11.8327 22.2511 13.7679 19.8651 13.7706H18.5156L18.1593 13.0257C18.8664 12.8016 19.328 12.2429 19.2146 11.7085C19.0905 11.1255 18.3293 10.7935 17.5115 10.9663C16.8934 11.0985 16.4211 11.4818 16.2834 11.9137C16.2206 11.8118 16.1329 11.7276 16.0285 11.6691C15.9242 11.6105 15.8066 11.5795 15.6869 11.579H15.6816C15.7031 11.4926 15.7139 11.4035 15.7139 11.3118C15.7139 10.7693 15.3145 10.3212 14.7936 10.2429V9.55737C14.7936 9.43862 14.6964 9.34145 14.5776 9.34145C14.4589 9.34145 14.3617 9.43862 14.3617 9.55737V10.2672C14.2376 10.2996 14.1242 10.3536 14.0216 10.4238L13.4953 9.84618C13.4143 9.75711 13.2794 9.75171 13.1903 9.83268C13.1012 9.91365 13.0958 10.0486 13.1768 10.1377L13.7166 10.7315L13.722 10.7369C13.6022 10.926 13.5441 11.1478 13.5558 11.3715C13.5676 11.5951 13.6487 11.8096 13.7877 11.9852C13.9268 12.1607 14.117 12.2887 14.3321 12.3513C14.5471 12.4139 14.7763 12.4081 14.9879 12.3347C14.9987 12.4859 15.0581 12.6235 15.1498 12.7342L14.61 13.7706H4.21054V13.7679C1.87585 13.7085 3.8147e-06 11.7976 3.8147e-06 9.44671C3.8147e-06 7.05804 1.93523 5.12282 4.3212 5.12282ZM16.7828 12.9609L16.8988 13.7706H16.2403L16.3995 12.6505C16.494 12.7747 16.6235 12.8799 16.7828 12.9609ZM4.38598 1.29555C4.38598 1.63915 4.24948 1.96868 4.00652 2.21164C3.76356 2.4546 3.43403 2.5911 3.09043 2.5911C2.74683 2.5911 2.4173 2.4546 2.17434 2.21164C1.93138 1.96868 1.79488 1.63915 1.79488 1.29555C1.79488 0.951948 1.93138 0.62242 2.17434 0.379457C2.4173 0.136495 2.74683 0 3.09043 0C3.43403 0 3.76356 0.136495 4.00652 0.379457C4.24948 0.62242 4.38598 0.951948 4.38598 1.29555ZM6.15926 2.95007C6.15926 3.03514 6.14251 3.11937 6.10995 3.19797C6.0774 3.27656 6.02969 3.34797 5.96953 3.40812C5.90938 3.46827 5.83797 3.51599 5.75938 3.54854C5.68079 3.58109 5.59655 3.59785 5.51149 3.59785C5.42642 3.59785 5.34219 3.58109 5.2636 3.54854C5.185 3.51599 5.11359 3.46827 5.05344 3.40812C4.99329 3.34797 4.94558 3.27656 4.91302 3.19797C4.88047 3.11937 4.86371 3.03514 4.86371 2.95007C4.86371 2.86501 4.88047 2.78077 4.91302 2.70218C4.94558 2.62359 4.99329 2.55218 5.05344 2.49203C5.11359 2.43188 5.185 2.38416 5.2636 2.35161C5.34219 2.31905 5.42642 2.3023 5.51149 2.3023C5.59655 2.3023 5.68079 2.31905 5.75938 2.35161C5.83797 2.38416 5.90938 2.43188 5.96953 2.49203C6.02969 2.55218 6.0774 2.62359 6.10995 2.70218C6.14251 2.78077 6.15926 2.86501 6.15926 2.95007ZM17.722 13.1147L18.0351 13.7706H17.3334L17.2389 13.1039C17.3928 13.1255 17.5547 13.1309 17.722 13.1147Z" fill="white"/>
<defs>
<clipPath id="clip0_309_5">
<rect width="13.802" height="18.3537" fill="white" transform="translate(19.2269 49.6639) rotate(178.605)"/>
</clipPath>
</defs>
</svg>
