<svg width="50" height="50" viewBox="0 0 50 50" fill="none" xmlns="http://www.w3.org/2000/svg">
<circle cx="25" cy="25" r="23.25" stroke="white" stroke-width="3.5"/>
<path d="M44.4313 25.5937C42.5563 25.2766 40.6031 25.0687 39.0156 25.0125L38.7344 25.0031C38.8 24.8625 38.8484 24.7687 38.8641 24.7531C38.8984 24.725 38.9266 24.6062 38.9297 24.4906C38.9297 24.4281 38.9578 24.2187 39.0016 23.9437C39.4328 23.9594 40.0016 23.9719 40.6266 23.975C43.0266 23.9953 45.5391 24.1891 47.2625 24.4937C48.2891 24.675 48.6281 24.6687 47.8719 24.4844C47.1031 24.2969 44.8281 24.025 43.0156 23.9062C41.6865 23.8262 40.3549 23.7939 39.0234 23.8094C39.0547 23.6312 39.0859 23.4344 39.1234 23.2312C39.2672 22.4437 39.3156 21.6531 39.3187 20.0797C39.3219 17.6422 39.1906 16.9703 38.3969 15.3547C38.097 14.7322 37.7161 14.1522 37.2641 13.6297C37.65 12.4891 37.6391 10.7266 37.2406 9.17968C36.9125 7.91093 36.7953 7.82968 35.6469 8.07343C34.6703 8.28125 33.8891 8.56406 32.8875 9.06875C32.4125 9.30781 31.7594 9.67812 31.2859 9.97187C30.0516 9.53906 28.775 9.25312 27.4109 9.09687C26.0312 8.94062 22.6453 9.02812 21.4422 9.25C20.2703 9.46875 19.2109 9.73437 18.2547 10.0469C17.775 9.75312 17.0828 9.35468 16.5859 9.10468C15.5797 8.59843 14.7984 8.31718 13.8203 8.10937C12.6734 7.86406 12.5547 7.94687 12.2266 9.21562C11.8203 10.7828 11.8172 12.575 12.2188 13.7125C12.2656 13.8422 12.2938 13.9344 12.3047 14.0062C10.6766 16.0562 10.1453 18.35 10.4984 21.5531C10.5922 22.3859 10.7328 23.1516 10.9328 23.8531C9.89375 23.8469 8.41719 23.8844 7.34844 23.9531C5.53281 24.0734 3.25781 24.3437 2.48906 24.5312C1.73438 24.7141 2.07031 24.7187 3.09844 24.5406C4.82188 24.2375 7.33594 24.0406 9.73594 24.025C10.1891 24.0219 10.6109 24.0125 10.9766 24.0031C11.0859 24.3734 11.2109 24.7266 11.3516 25.0625H11.3438C9.75781 25.1187 7.80625 25.3281 5.92969 25.6406C4.52344 25.8781 2.44531 26.35 2.20156 26.4844C1.94531 26.6281 2.15469 26.5969 3.24375 26.3203C5.23281 25.8172 7.81875 25.4297 11.0219 25.1641L11.3813 25.1328C12.0688 26.7266 13.1266 27.9453 14.6234 28.8984C15.5391 29.4797 17.0063 30.0781 17.7453 30.1719C17.9484 30.1969 18.5391 30.3187 19.0578 30.4406C19.5781 30.5625 20.5953 30.7453 21.3172 30.85H21.3328L21.2953 30.875C20.4203 31.3281 19.8516 32.0375 19.4672 33.1516C19.2953 33.2031 19.0828 33.2734 18.8516 33.3547C18.0234 33.6359 17.7031 33.6922 16.8672 33.6984C15.9969 33.7047 15.7891 33.6672 15.2734 33.4234C14.4739 33.0303 13.8045 32.4151 13.3453 31.6516C12.5641 30.3609 11.2094 29.4484 10.0797 29.4484C9.11719 29.4484 8.93438 29.8391 9.63125 30.4094C10.6813 31.2687 11.4656 32.1437 11.7875 32.8125L12.4078 34.1C12.5797 34.4547 12.9422 34.9359 13.2891 35.2687C14.1047 36.0469 14.8922 36.4187 16.0672 36.5937C16.8547 36.7094 17.0484 36.7094 17.9781 36.5906C18.4266 36.5359 18.8063 36.4719 19.1438 36.3922V37.7266C19.1438 40.4859 19.1125 41.3734 19.0031 41.6328C18.7953 42.1266 18.3313 42.6328 17.8828 42.8625C17.4344 43.0922 17.2953 43.3437 17.4844 43.575C17.5906 43.7 17.7922 43.7219 18.4688 43.6781C19.7531 43.6 20.6609 43.1234 21.125 42.2875C21.2719 42.0172 21.3063 41.475 21.3531 38.6625C21.4031 35.6125 21.425 35.3187 21.6234 34.8812C21.7422 34.6234 21.9156 34.3422 22.0141 34.2656C22.175 34.1312 22.1859 34.3969 22.1859 38.0469C22.1859 42.075 22.1437 42.5625 21.7406 43.3359C21.65 43.5125 21.4781 43.7422 21.3578 43.8516C21.1469 44.0437 21.0578 44.5359 21.2047 44.6844C21.4469 44.925 22.6609 44.5469 23.3234 44.025C24.4516 43.1312 24.5859 42.3922 24.5953 37.0562L24.6 33.9234L24.9438 33.9547L25.2844 33.9859L25.3406 38.0797C25.4031 42.6922 25.4125 42.7594 26.1969 43.65C26.6422 44.1531 27.0906 44.4312 27.8219 44.65C28.7969 44.9422 29.0906 44.4891 28.4344 43.7031C27.7203 42.8469 27.6844 42.5203 27.725 37.4609C27.7516 34.2172 27.7516 34.2172 27.9594 34.4062C28.4016 34.8062 28.4859 35.4625 28.4859 38.5047C28.4859 42.2828 28.5953 42.6422 29.9281 43.3016C30.5531 43.6062 30.725 43.6453 31.525 43.6453C32.375 43.65 32.4266 43.6375 32.4578 43.4156C32.4844 43.2359 32.3797 43.1141 31.9828 42.8719C31.4929 42.5827 31.106 42.1471 30.8766 41.6266C30.7906 41.4297 30.7328 40.1297 30.6937 37.4547C30.6375 33.7141 30.625 33.5437 30.3922 32.9578C30.0797 32.1703 29.5984 31.5484 28.9906 31.1359C28.8344 31.0328 28.675 30.9484 28.4703 30.8828C28.7203 30.8578 28.9656 30.8312 29.2016 30.7969C31.6578 30.4687 32.9563 30.1969 33.9984 29.7937C36.2016 28.9453 37.6938 27.5359 38.5016 25.5375C38.5734 25.3594 38.6453 25.1906 38.7047 25.0531L39.3297 25.1062C42.5328 25.3766 45.1188 25.7625 47.1078 26.2672C48.1984 26.5453 48.4047 26.5797 48.1516 26.4328C47.9141 26.3 45.8359 25.8297 44.4297 25.5937H44.4313ZM35.0344 25.5437C34.6703 26.3437 33.6547 27.3719 32.8344 27.775C32.025 28.175 30.7563 28.4781 29.3188 28.625C28.3344 28.725 22.8547 28.7547 21.95 28.6656C18.9547 28.3719 17.2781 27.7953 16.0391 26.6406C14.8672 25.5437 14.3203 24.0547 14.4141 22.2219C14.4766 21.075 14.7531 20.3547 15.4766 19.4797C16.1328 18.6828 16.8266 18.1906 17.6422 17.9406C18.3266 17.7312 20.4234 17.7125 23.2391 17.8937C24.4844 17.9719 25.5141 17.9719 26.7578 17.8937C29.7047 17.7062 31.6719 17.7281 32.3984 17.9531C33.5391 18.3062 34.5812 19.2562 35.2062 20.5219C35.4875 21.0875 35.5438 21.3281 35.5844 22.2016C35.6406 23.4047 35.4328 24.6812 35.0375 25.5422L35.0344 25.5437ZM20.175 20.3781C18.4984 20.0844 17.5406 22.9562 18.8266 24.4203C19.4359 25.1141 19.9781 25.2281 20.6547 24.8062C21.2844 24.4156 21.6234 23.6812 21.6234 22.7312C21.6234 21.4625 21.0484 20.5312 20.1734 20.375L20.175 20.3781ZM30.3516 20.55C28.675 20.2562 27.7156 23.1234 29.0016 24.5906C29.6156 25.2859 30.1578 25.4031 30.8359 24.9766C31.4609 24.5859 31.8047 23.8516 31.8047 22.9016C31.8047 21.6391 31.2266 20.7047 30.3516 20.55ZM25.8422 26.1937C25.8047 26.3094 25.6297 26.4812 25.4516 26.5734C25.0062 26.8031 24.6859 26.7234 24.2125 26.2922C23.9203 26.0297 23.7875 25.8906 23.6969 26.1672C23.6156 26.4234 24.1344 26.9375 24.5375 27.0953C24.9063 27.2437 25.1703 27.2484 25.5688 27.0797C25.9672 26.9156 26.3141 26.4703 26.3141 26.1812C26.3141 25.9125 25.9281 25.925 25.8406 26.1969L25.8422 26.1937ZM25.3453 25.2953C25.6 25.0687 25.6578 24.6078 25.4141 24.3609C25.1703 24.1141 24.675 24.1531 24.4813 24.4281C24.2547 24.75 24.375 24.9953 24.5359 25.2562C24.7859 25.45 25.1219 25.4906 25.3437 25.2937L25.3453 25.2953Z" fill="white"/>
</svg>
