<svg width="28" height="28" viewBox="0 0 28 28" fill="none" xmlns="http://www.w3.org/2000/svg">
<circle cx="14" cy="14" r="13" stroke="white" stroke-width="2"/>
<path fill-rule="evenodd" clip-rule="evenodd" d="M11.9843 10.5037H14.8961V11.9541C15.3156 11.1199 16.3912 10.3704 18.007 10.3704C21.1046 10.3704 21.84 12.0309 21.84 15.0776V20.72H18.704V15.7714C18.704 14.0364 18.2846 13.058 17.2168 13.058C15.7358 13.058 15.1203 14.1124 15.1203 15.7706V20.72H11.9843V10.5037ZM6.60688 20.5867H9.74288V10.3704H6.60688V20.5867ZM10.1921 7.0392C10.1922 7.30206 10.1401 7.56231 10.0388 7.80485C9.93741 8.04738 9.78886 8.26735 9.60176 8.45197C9.22262 8.82878 8.70942 9.0397 8.17488 9.0384C7.64128 9.03804 7.12927 8.82766 6.74957 8.45275C6.56314 8.2675 6.4151 8.04729 6.31393 7.80472C6.21276 7.56216 6.16045 7.30202 6.16 7.0392C6.16 6.50843 6.37168 6.0004 6.75035 5.62565C7.12972 5.25024 7.64195 5.03977 8.17566 5.04C8.71035 5.04 9.22309 5.2509 9.60176 5.62565C9.97965 6.0004 10.1921 6.50843 10.1921 7.0392Z" fill="white"/>
</svg>
