<svg width="50" height="50" viewBox="0 0 50 50" fill="none" xmlns="http://www.w3.org/2000/svg">
<circle cx="25" cy="25" r="23.25" stroke="white" stroke-width="3.5"/>
<path fill-rule="evenodd" clip-rule="evenodd" d="M21.4006 18.7566H26.6002V21.3466C27.3492 19.857 29.27 18.5186 32.1554 18.5186C37.6868 18.5186 39 21.4838 39 26.9242V37H33.4V28.1632C33.4 25.065 32.651 23.3178 30.7442 23.3178C28.0996 23.3178 27.0006 25.2008 27.0006 28.1618V37H21.4006V18.7566ZM11.798 36.762H17.398V18.5186H11.798V36.762ZM18.2002 12.57C18.2004 13.0394 18.1073 13.5041 17.9263 13.9372C17.7454 14.3703 17.4801 14.7631 17.146 15.0928C16.469 15.7657 15.5525 16.1423 14.598 16.14C13.6451 16.1394 12.7308 15.7637 12.0528 15.0942C11.7199 14.7634 11.4555 14.3702 11.2749 13.937C11.0942 13.5039 11.0008 13.0393 11 12.57C11 11.6222 11.378 10.715 12.0542 10.0458C12.7316 9.37542 13.6463 8.99958 14.5994 9C15.5542 9 16.4698 9.3766 17.146 10.0458C17.8208 10.715 18.2002 11.6222 18.2002 12.57Z" fill="white"/>
</svg>
