<svg width="51" height="51" viewBox="0 0 51 51" fill="none" xmlns="http://www.w3.org/2000/svg">
<circle cx="25" cy="25" r="23.25" stroke="white" stroke-width="3.5"/>
<g clip-path="url(#clip0_19_14)">
<rect x="22.5756" y="30.9235" width="5.48023" height="8.22035" fill="black"/>
<path d="M21.1621 31.9851C22.112 30.9981 23.0685 30.4928 24.0318 30.4694C23.4831 31.0249 23.1152 31.5836 22.9281 32.1454C22.7409 32.7071 22.6585 33.4446 22.6807 34.3577C22.691 34.7791 22.884 35.3844 23.2596 36.1734C23.6353 36.9625 24.0112 37.6586 24.3873 38.2619C24.7634 38.8652 24.9511 39.1518 24.9504 39.1217C24.968 39.0209 24.9924 38.8898 25.0237 38.7284C25.0549 38.5669 25.1377 38.2587 25.2722 37.8036C25.4067 37.3485 25.5595 36.9231 25.7306 36.5274C25.9017 36.1317 26.145 35.7141 26.4606 35.2747C26.7762 34.8353 27.1217 34.4905 27.4972 34.2404C27.8033 34.0321 27.9608 33.6944 27.9695 33.2274C27.9782 32.7603 27.8812 32.2807 27.6784 31.7887C27.4757 31.2966 27.2234 30.8334 26.9217 30.399C27.4635 30.3858 28.3607 30.9462 29.6132 32.0804C30.0339 32.4517 30.348 32.8758 30.5554 33.3526C30.7628 33.8295 30.8711 34.2586 30.8804 34.6399C30.896 35.2821 30.7342 35.9562 30.395 36.6623C30.0558 37.3683 29.5916 37.9946 29.0025 38.5411C28.502 39.0151 28.1 39.5118 27.7964 40.0313C27.4928 40.5507 27.3014 41.0398 27.2222 41.4986C27.143 41.9574 27.1163 42.4073 27.1421 42.8484C27.1679 43.2896 27.2453 43.6843 27.3743 44.0325C27.5032 44.3808 27.6312 44.6889 27.7582 44.9569C27.8852 45.2249 28.0006 45.4279 28.1044 45.566L28.2604 45.7881C28.1287 45.7411 27.9538 45.67 27.7356 45.5749C27.5174 45.4799 27.0956 45.2693 26.4702 44.9431C25.8448 44.617 25.2516 44.275 24.6907 43.9172C24.1298 43.5594 23.5161 43.0949 22.8495 42.5238C22.183 41.9527 21.6316 41.3662 21.1952 40.7644C20.5927 39.9357 20.1264 39.0309 19.7963 38.05C19.4662 37.069 19.3066 36.1869 19.3177 35.4035C19.328 35.0016 19.4624 34.5465 19.7211 34.0382C19.9799 33.5299 20.2309 33.1197 20.4743 32.8075C20.7177 32.4954 20.947 32.2212 21.1621 31.9851Z" fill="white"/>
</g>
<path d="M27.3126 28.7462V33.5769H23.448V30.6785H22.4819C21.7132 30.6785 20.976 30.3732 20.4324 29.8296C19.8888 29.286 19.5835 28.5488 19.5835 27.7801V24.8817C19.5835 24.6254 19.6853 24.3797 19.8664 24.1985C20.0476 24.0173 20.2934 23.9155 20.5496 23.9155C20.8058 23.9155 21.0516 24.0173 21.2328 24.1985C21.414 24.3797 21.5157 24.6254 21.5157 24.8817V27.7801C21.5157 28.3211 21.9505 28.7462 22.4819 28.7462H23.448V19.0848C23.448 18.5724 23.6516 18.0809 24.014 17.7185C24.3764 17.3561 24.8678 17.1526 25.3803 17.1526C25.8928 17.1526 26.3843 17.3561 26.7466 17.7185C27.109 18.0809 27.3126 18.5724 27.3126 19.0848V26.814H28.2787C28.535 26.814 28.7807 26.7122 28.9619 26.531C29.1431 26.3498 29.2449 26.1041 29.2449 25.8478V23.9155C29.2449 23.6593 29.3467 23.4136 29.5278 23.2324C29.709 23.0512 29.9548 22.9494 30.211 22.9494C30.4672 22.9494 30.713 23.0512 30.8942 23.2324C31.0754 23.4136 31.1771 23.6593 31.1771 23.9155V25.8478C31.1771 26.6165 30.8718 27.3538 30.3282 27.8973C29.7847 28.4409 29.0474 28.7462 28.2787 28.7462H27.3126Z" fill="white"/>
<rect x="25.7612" y="11.5727" width="5.38729" height="3.9144" fill="black"/>
<path d="M28.1748 14.9053C28.2451 14.9053 28.3131 14.8939 28.3743 14.8713L28.2745 15.5673H27.6782L28.0297 14.8894C28.0773 14.9008 28.1249 14.9053 28.1748 14.9053ZM18.6298 8.30317C18.9155 8.30317 19.1921 8.33718 19.4573 8.39839C19.9425 7.52778 20.8698 6.94057 21.9354 6.94057C22.0918 6.94057 22.2437 6.95418 22.3934 6.97685C23.196 5.22203 24.9644 4.00453 27.0162 4.00453C29.5623 4.00453 31.6708 5.87725 32.0404 8.32131C33.8791 8.50041 35.3142 10.0489 35.3142 11.9352C35.3142 13.9395 33.6909 15.565 31.6867 15.5673H30.5531L30.2538 14.9416C30.8478 14.7534 31.2355 14.2841 31.1403 13.8352C31.036 13.3454 30.3966 13.0666 29.7097 13.2117C29.1905 13.3228 28.7937 13.6447 28.6781 14.0075C28.6253 13.9219 28.5516 13.8512 28.464 13.802C28.3763 13.7528 28.2776 13.7268 28.177 13.7263H28.1725C28.1906 13.6538 28.1997 13.579 28.1997 13.5019C28.1997 13.0462 27.8642 12.6698 27.4266 12.6041V12.0282C27.4266 11.9284 27.345 11.8468 27.2452 11.8468C27.1455 11.8468 27.0638 11.9284 27.0638 12.0282V12.6245C26.9595 12.6517 26.8643 12.697 26.7782 12.756L26.3361 12.2708C26.268 12.196 26.1547 12.1914 26.0799 12.2594C26.005 12.3275 26.0005 12.4408 26.0685 12.5156L26.522 13.0144L26.5265 13.019C26.4258 13.1779 26.377 13.3642 26.3869 13.5521C26.3968 13.7399 26.4649 13.9201 26.5817 14.0675C26.6985 14.215 26.8583 14.3225 27.0389 14.3751C27.2196 14.4277 27.4121 14.4228 27.5898 14.3612C27.5989 14.4881 27.6488 14.6037 27.7259 14.6967L27.2724 15.5673H18.5369V15.565C16.5757 15.5152 15 13.91 15 11.9352C15 9.92876 16.6256 8.30317 18.6298 8.30317ZM29.0975 14.8871L29.195 15.5673H28.6418L28.7756 14.6264C28.8549 14.7307 28.9638 14.8191 29.0975 14.8871ZM18.6842 5.08826C18.6842 5.37689 18.5696 5.65369 18.3655 5.85778C18.1614 6.06187 17.8846 6.17652 17.596 6.17652C17.3073 6.17652 17.0305 6.06187 16.8264 5.85778C16.6224 5.65369 16.5077 5.37689 16.5077 5.08826C16.5077 4.79964 16.6224 4.52283 16.8264 4.31874C17.0305 4.11466 17.3073 4 17.596 4C17.8846 4 18.1614 4.11466 18.3655 4.31874C18.5696 4.52283 18.6842 4.79964 18.6842 5.08826ZM20.1738 6.47806C20.1738 6.54952 20.1597 6.62027 20.1324 6.68629C20.105 6.75231 20.0649 6.81229 20.0144 6.86282C19.9639 6.91335 19.9039 6.95343 19.8379 6.98077C19.7719 7.00812 19.7011 7.02219 19.6296 7.02219C19.5582 7.02219 19.4874 7.00812 19.4214 6.98077C19.3554 6.95343 19.2954 6.91335 19.2449 6.86282C19.1944 6.81229 19.1543 6.75231 19.1269 6.68629C19.0996 6.62027 19.0855 6.54952 19.0855 6.47806C19.0855 6.40661 19.0996 6.33585 19.1269 6.26983C19.1543 6.20382 19.1944 6.14383 19.2449 6.0933C19.2954 6.04278 19.3554 6.0027 19.4214 5.97535C19.4874 5.94801 19.5582 5.93393 19.6296 5.93393C19.7011 5.93393 19.7719 5.94801 19.8379 5.97535C19.9039 6.0027 19.9639 6.04278 20.0144 6.0933C20.0649 6.14383 20.105 6.20382 20.1324 6.26983C20.1597 6.33585 20.1738 6.40661 20.1738 6.47806ZM29.8865 15.0164L30.1495 15.5673H29.56L29.4807 15.0073C29.6099 15.0254 29.7459 15.03 29.8865 15.0164Z" fill="white"/>
<defs>
<clipPath id="clip0_19_14">
<rect width="11.5937" height="15.4171" fill="white" transform="translate(31.1506 45.7177) rotate(178.605)"/>
</clipPath>
</defs>
</svg>
