<svg width="39" height="39" viewBox="0 0 39 39" fill="none" xmlns="http://www.w3.org/2000/svg">
<circle cx="19.24" cy="19.24" r="18" stroke="white" stroke-width="2"/>
<g clip-path="url(#clip0_19_14)">
<rect x="17.3975" y="23.7419" width="4.16497" height="6.24746" fill="black"/>
<path d="M16.3232 24.5486C17.0451 23.7985 17.7721 23.4146 18.5042 23.3967C18.0872 23.8189 17.8075 24.2435 17.6653 24.6705C17.5231 25.0974 17.4605 25.6579 17.4774 26.3519C17.4852 26.6722 17.6318 27.1321 17.9173 27.7318C18.2028 28.3315 18.4885 28.8606 18.7744 29.3191C19.0602 29.7776 19.2029 29.9954 19.2023 29.9725C19.2157 29.8959 19.2343 29.7962 19.258 29.6736C19.2817 29.5509 19.3447 29.3166 19.4469 28.9708C19.5491 28.6249 19.6652 28.3016 19.7953 28.0008C19.9253 27.7001 20.1102 27.3827 20.3501 27.0488C20.5899 26.7148 20.8525 26.4528 21.1379 26.2627C21.3705 26.1044 21.4902 25.8478 21.4968 25.4928C21.5034 25.1378 21.4297 24.7734 21.2756 24.3994C21.1215 24.0254 20.9298 23.6734 20.7005 23.3432C21.1123 23.3332 21.7941 23.7592 22.7461 24.6211C23.0658 24.9033 23.3045 25.2256 23.4621 25.588C23.6197 25.9504 23.702 26.2765 23.7091 26.5663C23.721 27.0544 23.598 27.5667 23.3402 28.1033C23.0824 28.6399 22.7296 29.1159 22.2819 29.5312C21.9016 29.8915 21.596 30.269 21.3652 30.6638C21.1345 31.0586 20.989 31.4303 20.9289 31.7789C20.8687 32.1276 20.8484 32.4696 20.868 32.8048C20.8876 33.1401 20.9464 33.4401 21.0444 33.7047C21.1425 33.9694 21.2397 34.2036 21.3363 34.4073C21.4328 34.6109 21.5205 34.7652 21.5993 34.8701L21.7179 35.0389C21.6178 35.0032 21.4849 34.9492 21.3191 34.877C21.1533 34.8047 20.8327 34.6446 20.3574 34.3968C19.8821 34.1489 19.4313 33.889 19.005 33.6171C18.5786 33.3451 18.1122 32.9921 17.6057 32.5581C17.0991 32.124 16.68 31.6783 16.3484 31.2209C15.8905 30.5911 15.5361 29.9035 15.2852 29.158C15.0343 28.4125 14.913 27.742 14.9214 27.1467C14.9292 26.8412 15.0315 26.4954 15.2281 26.1091C15.4247 25.7227 15.6155 25.411 15.8005 25.1737C15.9855 24.9365 16.1597 24.7281 16.3232 24.5486Z" fill="white"/>
</g>
<path d="M20.9976 22.0871V25.7585H18.0605V23.5557H17.3262C16.742 23.5557 16.1817 23.3236 15.7686 22.9105C15.3555 22.4974 15.1234 21.9371 15.1234 21.3529V19.1501C15.1234 18.9553 15.2008 18.7686 15.3385 18.6309C15.4762 18.4932 15.663 18.4158 15.8577 18.4158C16.0524 18.4158 16.2392 18.4932 16.3769 18.6309C16.5146 18.7686 16.592 18.9553 16.592 19.1501V21.3529C16.592 21.7641 16.9224 22.0871 17.3262 22.0871H18.0605V14.7445C18.0605 14.355 18.2152 13.9815 18.4906 13.7061C18.766 13.4307 19.1396 13.2759 19.529 13.2759C19.9185 13.2759 20.292 13.4307 20.5674 13.7061C20.8428 13.9815 20.9976 14.355 20.9976 14.7445V20.6186H21.7318C21.9266 20.6186 22.1133 20.5412 22.251 20.4035C22.3887 20.2658 22.4661 20.0791 22.4661 19.8843V18.4158C22.4661 18.2211 22.5435 18.0343 22.6812 17.8966C22.8189 17.7589 23.0056 17.6815 23.2004 17.6815C23.3951 17.6815 23.5819 17.7589 23.7196 17.8966C23.8573 18.0343 23.9346 18.2211 23.9346 18.4158V19.8843C23.9346 20.4686 23.7026 21.0289 23.2894 21.442C22.8763 21.8551 22.3161 22.0871 21.7318 22.0871H20.9976Z" fill="white"/>
<rect x="19.8185" y="9.03522" width="4.09434" height="2.97494" fill="black"/>
<path d="M21.6528 11.568C21.7062 11.568 21.7579 11.5594 21.8045 11.5422L21.7286 12.0712H21.2755L21.5425 11.556C21.5787 11.5646 21.6149 11.568 21.6528 11.568ZM14.3987 6.55041C14.6158 6.55041 14.826 6.57625 15.0276 6.62278C15.3963 5.96111 16.1011 5.51483 16.9109 5.51483C17.0298 5.51483 17.1452 5.52517 17.259 5.5424C17.8689 4.20874 19.2129 3.28345 20.7723 3.28345C22.7073 3.28345 24.3098 4.70671 24.5907 6.56419C25.9881 6.70031 27.0788 7.87718 27.0788 9.31078C27.0788 10.834 25.8451 12.0694 24.3219 12.0712H23.4603L23.2329 11.5956C23.6843 11.4526 23.979 11.0959 23.9066 10.7547C23.8274 10.3825 23.3414 10.1706 22.8193 10.2809C22.4248 10.3653 22.1232 10.61 22.0353 10.8857C21.9952 10.8207 21.9392 10.7669 21.8726 10.7295C21.806 10.6921 21.7309 10.6724 21.6545 10.672H21.6511C21.6649 10.6169 21.6718 10.56 21.6718 10.5014C21.6718 10.1551 21.4168 9.86906 21.0842 9.81909V9.38143C21.0842 9.30561 21.0222 9.24358 20.9464 9.24358C20.8705 9.24358 20.8085 9.30561 20.8085 9.38143V9.8346C20.7293 9.85527 20.6569 9.88974 20.5914 9.93454L20.2554 9.5658C20.2037 9.50894 20.1176 9.50549 20.0607 9.55718C20.0038 9.60887 20.0004 9.69503 20.0521 9.75189L20.3967 10.131L20.4001 10.1344C20.3236 10.2552 20.2865 10.3968 20.2941 10.5396C20.3016 10.6823 20.3533 10.8193 20.4421 10.9313C20.5309 11.0434 20.6523 11.1251 20.7896 11.1651C20.9269 11.205 21.0732 11.2013 21.2083 11.1545C21.2152 11.251 21.2531 11.3388 21.3117 11.4095L20.967 12.0712H14.328V12.0694C12.8375 12.0315 11.64 10.8116 11.64 9.31078C11.64 7.78585 12.8755 6.55041 14.3987 6.55041ZM22.3541 11.5542L22.4282 12.0712H22.0078L22.1094 11.3561C22.1697 11.4353 22.2525 11.5025 22.3541 11.5542ZM14.44 4.10708C14.44 4.32643 14.3529 4.5368 14.1978 4.69191C14.0427 4.84702 13.8323 4.93416 13.6129 4.93416C13.3936 4.93416 13.1832 4.84702 13.0281 4.69191C12.873 4.5368 12.7859 4.32643 12.7859 4.10708C12.7859 3.88772 12.873 3.67735 13.0281 3.52224C13.1832 3.36714 13.3936 3.28 13.6129 3.28C13.8323 3.28 14.0427 3.36714 14.1978 3.52224C14.3529 3.67735 14.44 3.88772 14.44 4.10708ZM15.5721 5.16333C15.5721 5.21763 15.5614 5.27141 15.5406 5.32158C15.5198 5.37175 15.4893 5.41734 15.4509 5.45574C15.4125 5.49414 15.367 5.5246 15.3168 5.54539C15.2666 5.56617 15.2128 5.57687 15.1585 5.57687C15.1042 5.57687 15.0505 5.56617 15.0003 5.54539C14.9501 5.5246 14.9045 5.49414 14.8661 5.45574C14.8277 5.41734 14.7973 5.37175 14.7765 5.32158C14.7557 5.27141 14.745 5.21763 14.745 5.16333C14.745 5.10902 14.7557 5.05524 14.7765 5.00507C14.7973 4.9549 14.8277 4.90931 14.8661 4.87091C14.9045 4.83251 14.9501 4.80205 15.0003 4.78127C15.0505 4.76048 15.1042 4.74979 15.1585 4.74979C15.2128 4.74979 15.2666 4.76048 15.3168 4.78127C15.367 4.80205 15.4125 4.83251 15.4509 4.87091C15.4893 4.90931 15.5198 4.9549 15.5406 5.00507C15.5614 5.05524 15.5721 5.10902 15.5721 5.16333ZM22.9537 11.6524L23.1536 12.0712H22.7056L22.6453 11.6456C22.7435 11.6593 22.8469 11.6628 22.9537 11.6524Z" fill="white"/>
<defs>
<clipPath id="clip0_19_14">
<rect width="8.8112" height="11.717" fill="white" transform="translate(23.9145 34.9854) rotate(178.605)"/>
</clipPath>
</defs>
</svg>
