<svg width="50" height="50" viewBox="0 0 50 50" fill="none" xmlns="http://www.w3.org/2000/svg">
<g clip-path="url(#clip0_405_23)">
<rect x="21.4775" y="32.1287" width="6.13264" height="9.19896" fill="black"/>
<path d="M19.8957 33.3166C20.9586 32.2121 22.0291 31.6468 23.107 31.6205C22.493 32.2422 22.0813 32.8673 21.8719 33.496C21.6625 34.1247 21.5702 34.9499 21.5951 35.9717C21.6066 36.4433 21.8225 37.1206 22.2429 38.0036C22.6633 38.8866 23.0839 39.6656 23.5048 40.3407C23.9257 41.0159 24.1358 41.3366 24.135 41.3029C24.1547 41.19 24.182 41.0433 24.2169 40.8627C24.2519 40.6821 24.3446 40.3371 24.4951 39.8279C24.6456 39.3186 24.8166 38.8426 25.008 38.3997C25.1995 37.9569 25.4718 37.4896 25.825 36.9979C26.1781 36.5061 26.5648 36.1203 26.9849 35.8404C27.3275 35.6074 27.5037 35.2295 27.5135 34.7068C27.5232 34.1841 27.4146 33.6475 27.1877 33.0969C26.9609 32.5462 26.6786 32.0279 26.3409 31.5417C26.9473 31.527 27.9513 32.1542 29.3529 33.4233C29.8237 33.8388 30.1751 34.3134 30.4072 34.847C30.6393 35.3807 30.7605 35.8608 30.7709 36.2875C30.7884 37.0062 30.6074 37.7605 30.2278 38.5506C29.8481 39.3408 29.3287 40.0416 28.6695 40.6531C28.1094 41.1836 27.6595 41.7395 27.3197 42.3208C26.98 42.902 26.7658 43.4494 26.6772 43.9627C26.5886 44.4761 26.5587 44.9796 26.5876 45.4733C26.6165 45.9669 26.7031 46.4086 26.8474 46.7983C26.9917 47.1881 27.1349 47.5329 27.277 47.8328C27.4192 48.1327 27.5483 48.3598 27.6644 48.5143L27.839 48.7629C27.6917 48.7103 27.4959 48.6308 27.2518 48.5244C27.0076 48.418 26.5356 48.1823 25.8357 47.8173C25.1359 47.4524 24.4721 47.0697 23.8444 46.6693C23.2167 46.2688 22.5299 45.7491 21.784 45.11C21.0381 44.4709 20.4211 43.8146 19.9328 43.1411C19.2585 42.2138 18.7367 41.2012 18.3673 40.1035C17.9978 39.0059 17.8193 38.0187 17.8317 37.142C17.8432 36.6923 17.9937 36.1831 18.2832 35.6142C18.5727 35.0454 18.8536 34.5863 19.126 34.237C19.3984 33.8877 19.6549 33.5809 19.8957 33.3166Z" fill="white"/>
</g>
<path d="M26.7784 29.6923V35.0981H22.4537V31.8546H21.3726C20.5124 31.8546 19.6874 31.5129 19.0791 30.9046C18.4708 30.2963 18.1291 29.4713 18.1291 28.6111V25.3676C18.1291 25.0809 18.243 24.8059 18.4458 24.6031C18.6485 24.4004 18.9235 24.2865 19.2103 24.2865C19.497 24.2865 19.772 24.4004 19.9748 24.6031C20.1775 24.8059 20.2914 25.0809 20.2914 25.3676V28.6111C20.2914 29.2166 20.778 29.6923 21.3726 29.6923H22.4537V18.8807C22.4537 18.3072 22.6816 17.7572 23.0871 17.3517C23.4926 16.9462 24.0426 16.7184 24.6161 16.7184C25.1895 16.7184 25.7395 16.9462 26.145 17.3517C26.5506 17.7572 26.7784 18.3072 26.7784 18.8807V27.53H27.8595C28.1463 27.53 28.4213 27.416 28.624 27.2133C28.8268 27.0105 28.9407 26.7355 28.9407 26.4488V24.2865C28.9407 23.9997 29.0546 23.7247 29.2574 23.522C29.4601 23.3192 29.7351 23.2053 30.0218 23.2053C30.3086 23.2053 30.5836 23.3192 30.7863 23.522C30.9891 23.7247 31.103 23.9997 31.103 24.2865V26.4488C31.103 27.309 30.7613 28.134 30.153 28.7423C29.5447 29.3505 28.7198 29.6923 27.8595 29.6923H26.7784Z" fill="white"/>
<rect x="25.0423" y="10.4741" width="6.02864" height="4.3804" fill="black"/>
<path d="M27.7432 14.2035C27.8218 14.2035 27.898 14.1908 27.9665 14.1655L27.8548 14.9444H27.1876L27.5808 14.1858C27.6341 14.1985 27.6874 14.2035 27.7432 14.2035ZM17.0619 6.81545C17.3816 6.81545 17.6911 6.85351 17.988 6.92201C18.5309 5.94775 19.5686 5.29064 20.761 5.29064C20.9361 5.29064 21.1061 5.30586 21.2735 5.33123C22.1717 3.36751 24.1506 2.00507 26.4467 2.00507C29.2959 2.00507 31.6554 4.10073 32.069 6.83575C34.1266 7.03618 35.7326 8.76903 35.7326 10.8799C35.7326 13.1227 33.916 14.9418 31.6732 14.9444H30.4046L30.0697 14.2441C30.7345 14.0335 31.1683 13.5084 31.0617 13.006C30.945 12.458 30.2296 12.1459 29.4608 12.3083C28.8798 12.4326 28.4358 12.7929 28.3064 13.1988C28.2474 13.1031 28.1649 13.024 28.0668 12.9689C27.9687 12.9139 27.8582 12.8847 27.7457 12.8842H27.7407C27.761 12.803 27.7711 12.7193 27.7711 12.6331C27.7711 12.1231 27.3956 11.7019 26.9059 11.6284V10.9839C26.9059 10.8723 26.8146 10.781 26.703 10.781C26.5913 10.781 26.5 10.8723 26.5 10.9839V11.6512C26.3833 11.6816 26.2767 11.7324 26.1803 11.7983L25.6856 11.2554C25.6095 11.1717 25.4826 11.1666 25.3989 11.2427C25.3152 11.3188 25.3101 11.4457 25.3862 11.5294L25.8936 12.0876L25.8987 12.0927C25.786 12.2705 25.7314 12.479 25.7425 12.6892C25.7536 12.8994 25.8297 13.101 25.9605 13.2661C26.0912 13.4311 26.27 13.5513 26.4722 13.6102C26.6743 13.6691 26.8897 13.6636 27.0886 13.5946C27.0988 13.7367 27.1546 13.8661 27.2408 13.9701L26.7334 14.9444H16.9579V14.9418C14.7633 14.886 13 13.0897 13 10.8799C13 8.63456 14.8191 6.81545 17.0619 6.81545ZM28.7758 14.1832L28.8849 14.9444H28.2658L28.4155 13.8915C28.5043 14.0082 28.6261 14.1071 28.7758 14.1832ZM17.1228 3.21782C17.1228 3.5408 16.9945 3.85056 16.7661 4.07894C16.5377 4.30733 16.228 4.43563 15.905 4.43563C15.582 4.43563 15.2723 4.30733 15.0439 4.07894C14.8155 3.85056 14.6872 3.5408 14.6872 3.21782C14.6872 2.89483 14.8155 2.58507 15.0439 2.35669C15.2723 2.12831 15.582 2 15.905 2C16.228 2 16.5377 2.12831 16.7661 2.35669C16.9945 2.58507 17.1228 2.89483 17.1228 3.21782ZM18.7897 4.77307C18.7897 4.85303 18.774 4.93221 18.7434 5.00609C18.7128 5.07996 18.6679 5.14709 18.6114 5.20363C18.5548 5.26018 18.4877 5.30503 18.4138 5.33563C18.3399 5.36623 18.2608 5.38198 18.1808 5.38198C18.1008 5.38198 18.0217 5.36623 17.9478 5.33563C17.8739 5.30503 17.8068 5.26018 17.7502 5.20363C17.6937 5.14709 17.6488 5.07996 17.6182 5.00609C17.5876 4.93221 17.5719 4.85303 17.5719 4.77307C17.5719 4.69311 17.5876 4.61393 17.6182 4.54005C17.6488 4.46617 17.6937 4.39905 17.7502 4.34251C17.8068 4.28596 17.8739 4.24111 17.9478 4.21051C18.0217 4.17991 18.1008 4.16416 18.1808 4.16416C18.2608 4.16416 18.3399 4.17991 18.4138 4.21051C18.4877 4.24111 18.5548 4.28596 18.6114 4.34251C18.6679 4.39905 18.7128 4.46617 18.7434 4.54005C18.774 4.61393 18.7897 4.69311 18.7897 4.77307ZM29.6587 14.3279L29.953 14.9444H29.2934L29.2046 14.3177C29.3492 14.338 29.5014 14.3431 29.6587 14.3279Z" fill="white"/>
<circle cx="25" cy="25" r="23.5" stroke="white" stroke-width="3"/>
<defs>
<clipPath id="clip0_405_23">
<rect width="12.9739" height="17.2525" fill="white" transform="translate(31.0733 48.6841) rotate(178.605)"/>
</clipPath>
</defs>
</svg>
