<svg width="28" height="28" viewBox="0 0 28 28" fill="none" xmlns="http://www.w3.org/2000/svg">
<circle cx="14" cy="14" r="13" stroke="white" stroke-width="2"/>
<path d="M24.8815 14.3325C23.8315 14.1549 22.7377 14.0385 21.8487 14.007L21.6913 14.0017C21.728 13.923 21.7551 13.8705 21.7639 13.8617C21.7831 13.846 21.7989 13.7795 21.8006 13.7147C21.8006 13.6797 21.8164 13.5625 21.8409 13.4085C22.0824 13.4172 22.4009 13.4242 22.7509 13.426C24.0949 13.4374 25.5019 13.5459 26.467 13.7165C27.0419 13.818 27.2318 13.8145 26.8083 13.7112C26.3778 13.6062 25.1038 13.454 24.0888 13.3875C23.3444 13.3427 22.5987 13.3246 21.8531 13.3332C21.8706 13.2335 21.8881 13.1232 21.9091 13.0095C21.9896 12.5685 22.0167 12.1257 22.0185 11.2446C22.0202 9.87962 21.9467 9.50337 21.5022 8.59862C21.3343 8.25004 21.121 7.92522 20.8679 7.63262C21.084 6.99387 21.0779 6.00687 20.8547 5.14062C20.671 4.43012 20.6054 4.38462 19.9622 4.52112C19.4154 4.6375 18.9779 4.79587 18.417 5.0785C18.151 5.21237 17.7853 5.41975 17.5201 5.58425C16.8289 5.34187 16.114 5.18175 15.3501 5.09425C14.5775 5.00675 12.6814 5.05575 12.0076 5.18C11.3514 5.3025 10.7581 5.45125 10.2226 5.62625C9.954 5.46175 9.56637 5.23862 9.28812 5.09862C8.72462 4.81512 8.28713 4.65762 7.73938 4.54125C7.09713 4.40387 7.03062 4.45025 6.84687 5.16075C6.61937 6.03837 6.61763 7.042 6.8425 7.679C6.86875 7.75162 6.8845 7.80325 6.89062 7.8435C5.97887 8.9915 5.68137 10.276 5.87912 12.0697C5.93162 12.5361 6.01038 12.9649 6.12238 13.3577C5.5405 13.3542 4.71363 13.3752 4.11513 13.4137C3.09838 13.4811 1.82438 13.6325 1.39388 13.7375C0.97125 13.8399 1.15938 13.8425 1.73513 13.7427C2.70025 13.573 4.10812 13.4627 5.45212 13.454C5.70587 13.4522 5.94213 13.447 6.14688 13.4417C6.20813 13.6491 6.27812 13.8469 6.35687 14.035H6.3525C5.46438 14.0665 4.3715 14.1837 3.32063 14.3587C2.53313 14.4917 1.36938 14.756 1.23288 14.8312C1.08938 14.9117 1.20663 14.8942 1.8165 14.7394C2.93038 14.4576 4.3785 14.2406 6.17225 14.0919L6.3735 14.0744C6.7585 14.9669 7.35088 15.6494 8.18913 16.1831C8.70188 16.5086 9.5235 16.8437 9.93738 16.8962C10.0511 16.9102 10.3819 16.9785 10.6724 17.0467C10.9637 17.115 11.5334 17.2174 11.9376 17.276H11.9464L11.9254 17.29C11.4354 17.5437 11.1169 17.941 10.9016 18.5649C10.8054 18.5937 10.6864 18.6331 10.5569 18.6786C10.0931 18.8361 9.91375 18.8676 9.44563 18.8711C8.95825 18.8746 8.84187 18.8536 8.55312 18.7171C8.10536 18.497 7.7305 18.1525 7.47338 17.7249C7.03588 17.0021 6.27725 16.4911 5.64463 16.4911C5.10563 16.4911 5.00325 16.7099 5.3935 17.0292C5.9815 17.5105 6.42075 18.0005 6.601 18.375L6.94837 19.096C7.04462 19.2946 7.24763 19.5641 7.44188 19.7505C7.89863 20.1862 8.33963 20.3945 8.99762 20.4925C9.43863 20.5572 9.54712 20.5572 10.0677 20.4907C10.3189 20.4601 10.5315 20.4242 10.7205 20.3796V21.1269C10.7205 22.6721 10.703 23.1691 10.6417 23.3144C10.5254 23.5909 10.2655 23.8744 10.0144 24.003C9.76325 24.1316 9.68537 24.2725 9.79125 24.402C9.85075 24.472 9.96362 24.4842 10.3425 24.4597C11.0617 24.416 11.5701 24.1491 11.83 23.681C11.9123 23.5296 11.9315 23.226 11.9578 21.651C11.9858 19.943 11.998 19.7785 12.1091 19.5335C12.1756 19.3891 12.2727 19.2316 12.3279 19.1887C12.418 19.1135 12.4241 19.2622 12.4241 21.3062C12.4241 23.562 12.4005 23.835 12.1747 24.2681C12.124 24.367 12.0277 24.4956 11.9604 24.5569C11.8422 24.6645 11.7924 24.9401 11.8746 25.0232C12.0103 25.158 12.6901 24.9462 13.0611 24.654C13.6929 24.1535 13.7681 23.7396 13.7734 20.7515L13.776 18.9971L13.9685 19.0146L14.1592 19.0321L14.1908 21.3246C14.2258 23.9076 14.231 23.9452 14.6703 24.444C14.9196 24.7257 15.1707 24.8815 15.5802 25.004C16.1262 25.1676 16.2907 24.9139 15.9232 24.4737C15.5234 23.9942 15.5032 23.8114 15.526 20.9781C15.5409 19.1616 15.5409 19.1616 15.6572 19.2675C15.9049 19.4915 15.9521 19.859 15.9521 21.5626C15.9521 23.6784 16.0134 23.8796 16.7597 24.2489C17.1097 24.4195 17.206 24.4414 17.654 24.4414C18.13 24.444 18.1589 24.437 18.1764 24.3127C18.1913 24.2121 18.1326 24.1439 17.9104 24.0082C17.636 23.8463 17.4194 23.6024 17.2909 23.3109C17.2427 23.2006 17.2104 22.4726 17.1885 20.9746C17.157 18.8799 17.15 18.7845 17.0196 18.4564C16.8446 18.0154 16.5751 17.6671 16.2348 17.4361C16.1473 17.3784 16.058 17.3311 15.9434 17.2944C16.0834 17.2804 16.2207 17.2655 16.3529 17.2462C17.7284 17.0625 18.4555 16.9102 19.0391 16.6845C20.2729 16.2094 21.1085 15.4201 21.5609 14.301C21.6011 14.2012 21.6414 14.1067 21.6746 14.0297L22.0246 14.0595C23.8184 14.2109 25.2665 14.427 26.3804 14.7096C26.9911 14.8654 27.1066 14.8846 26.9649 14.8024C26.8319 14.728 25.6681 14.4646 24.8806 14.3325H24.8815ZM19.6193 14.3045C19.4154 14.7525 18.8466 15.3282 18.3872 15.554C17.934 15.778 17.2235 15.9477 16.4185 16.03C15.8672 16.086 12.7986 16.1026 12.292 16.0527C10.6146 15.8882 9.67575 15.5654 8.98188 14.9187C8.32563 14.3045 8.01938 13.4706 8.07188 12.4442C8.10688 11.802 8.26175 11.3986 8.66687 10.9086C9.03437 10.4624 9.42288 10.1867 9.87963 10.0467C10.2629 9.9295 11.4371 9.919 13.0139 10.0205C13.7113 10.0642 14.2879 10.0642 14.9844 10.0205C16.6346 9.9155 17.7363 9.92775 18.1431 10.0537C18.7819 10.2515 19.3655 10.7835 19.7155 11.4922C19.873 11.809 19.9045 11.9437 19.9273 12.4329C19.9588 13.1066 19.8424 13.8215 19.621 14.3036L19.6193 14.3045ZM11.298 11.4117C10.3591 11.2472 9.82275 12.8555 10.5429 13.6754C10.8841 14.0639 11.1877 14.1277 11.5666 13.8915C11.9192 13.6727 12.1091 13.2615 12.1091 12.7295C12.1091 12.019 11.7871 11.4975 11.2971 11.41L11.298 11.4117ZM16.9969 11.508C16.058 11.3435 15.5208 12.9491 16.2409 13.7707C16.5848 14.1601 16.8884 14.2257 17.2681 13.9869C17.6181 13.7681 17.8106 13.3569 17.8106 12.8249C17.8106 12.1179 17.4869 11.5946 16.9969 11.508ZM14.4716 14.6685C14.4506 14.7332 14.3526 14.8295 14.2529 14.8811C14.0035 15.0097 13.8241 14.9651 13.559 14.7236C13.3954 14.5766 13.321 14.4987 13.2703 14.6536C13.2248 14.7971 13.5153 15.085 13.741 15.1734C13.9475 15.2565 14.0954 15.2591 14.3185 15.1646C14.5416 15.0727 14.7359 14.8234 14.7359 14.6615C14.7359 14.511 14.5198 14.518 14.4708 14.6702L14.4716 14.6685ZM14.1934 14.1654C14.336 14.0385 14.3684 13.7804 14.2319 13.6421C14.0954 13.5039 13.818 13.5257 13.7095 13.6797C13.5826 13.86 13.65 13.9974 13.7401 14.1435C13.8801 14.252 14.0682 14.2747 14.1925 14.1645L14.1934 14.1654Z" fill="white"/>
</svg>
