<svg width="24" height="24" viewBox="0 0 24 24" fill="none" xmlns="http://www.w3.org/2000/svg">
<circle cx="12" cy="12" r="11.125" stroke="white" stroke-width="1.75"/>
<path d="M14.9117 8.7395C14.4032 8.7395 14.0267 8.86775 13.732 9.02975C13.6847 8.86175 13.5295 8.73875 13.3465 8.7755H11.1085C10.8873 8.73875 10.708 8.918 10.7763 9.1505V17.4005C10.708 17.6105 10.8873 17.7905 11.1085 17.7755H13.3465C13.5677 17.7905 13.747 17.6105 13.747 17.3893L13.7463 12.4033C13.7455 12.401 13.7373 12.1625 13.888 11.9983C14.0088 11.8678 14.2165 11.801 14.5038 11.801C14.9823 11.801 15.1953 11.9968 15.2748 12.4348V17.3893C15.196 17.6105 15.3752 17.7905 15.5965 17.7755H17.9553C18.1765 17.7905 18.3557 17.6105 18.2762 17.3893V12.2682C18.355 9.66425 16.5002 8.7395 14.9117 8.7395V8.7395ZM17.554 17.0255H15.997V12.4348C15.997 11.549 15.4248 11 14.5045 11C13.984 11 13.579 11.153 13.3 11.4545C12.9122 11.8745 12.9423 12.407 13.0255 12.5255V17.0255H11.509V9.5405H12.946V9.7925C12.9454 9.86757 12.966 9.94128 13.0054 10.0052C13.0449 10.0691 13.1015 10.1205 13.1689 10.1537C13.2362 10.1868 13.3116 10.2002 13.3863 10.1925C13.4609 10.1847 13.5319 10.156 13.591 10.1098L13.696 10.0287C13.9997 9.7895 14.314 9.54125 14.9125 9.54125C15.532 9.54125 17.5547 9.7385 17.5547 12.269V17.0255H17.554ZM8.5255 5C7.684 5 7 5.684 7 6.5255C7 7.367 7.684 8.051 8.5255 8.051C9.367 8.051 10.051 7.367 10.051 6.5255C10.051 5.684 9.367 5 8.5255 5ZM8.5255 7.25C8.1265 7.25 7.801 6.9245 7.801 6.5255C7.801 6.1265 8.1265 5.801 8.5255 5.801C8.9245 5.801 9.25 6.1265 9.25 6.5255C9.25 6.9245 8.9245 7.25 8.5255 7.25ZM9.5965 8.73875H7.3705C7.14925 8.73875 6.97 8.918 7.0255 9.1505V17.4005C6.97 17.6105 7.14925 17.7905 7.3705 17.7755H9.5965C9.81775 17.7905 9.997 17.6105 9.997 17.3893V9.13925C9.997 9.03303 9.95481 8.93116 9.8797 8.85605C9.80459 8.78095 9.70272 8.73875 9.5965 8.73875ZM9.2755 17.0255H7.771V9.5405H9.2755V17.0255Z" fill="white"/>
</svg>
