<svg width="50" height="50" viewBox="0 0 50 50" fill="none" xmlns="http://www.w3.org/2000/svg">
<circle cx="25" cy="25" r="23.25" stroke="white" stroke-width="3.5"/>
<path d="M37.5 27.1475V36.39H32.1425V27.765C32.1425 25.6 31.3675 24.1225 29.4275 24.1225C27.9475 24.1225 27.065 25.1175 26.6775 26.0825C26.5375 26.4275 26.5 26.9075 26.5 27.3875V36.39H21.14C21.14 36.39 21.2125 21.785 21.14 20.2725H26.5V22.555L26.465 22.6075H26.5V22.5575C27.2125 21.4575 28.4825 19.8925 31.33 19.8925C34.855 19.8925 37.5 22.1975 37.5 27.1475V27.1475ZM15.5325 12.5C13.7 12.5 12.5 13.705 12.5 15.285C12.5 16.835 13.665 18.0725 15.4625 18.0725H15.4975C17.3675 18.0725 18.53 16.8325 18.53 15.285C18.495 13.705 17.3675 12.5 15.5325 12.5V12.5ZM12.8175 36.39H18.1775V20.2725H12.8175V36.39V36.39Z" fill="white"/>
</svg>
