<svg width="38" height="38" viewBox="0 0 38 38" fill="none" xmlns="http://www.w3.org/2000/svg">
<circle cx="19" cy="19" r="18" stroke="white" stroke-width="2"/>
<path fill-rule="evenodd" clip-rule="evenodd" d="M16.2645 14.255H20.2162V16.2234C20.7854 15.0913 22.2452 14.0741 24.4381 14.0741C28.642 14.0741 29.64 16.3277 29.64 20.4624V28.12H25.384V21.404C25.384 19.0494 24.8148 17.7215 23.3656 17.7215C21.3557 17.7215 20.5205 19.1526 20.5205 21.403V28.12H16.2645V14.255ZM8.96648 27.9391H13.2225V14.0741H8.96648V27.9391ZM13.8322 9.5532C13.8323 9.90993 13.7616 10.2631 13.624 10.5923C13.4865 10.9214 13.2849 11.22 13.031 11.4705C12.5164 11.9819 11.8199 12.2682 11.0945 12.2664C10.3703 12.2659 9.67544 11.9804 9.16013 11.4716C8.90712 11.2202 8.70621 10.9213 8.56891 10.5921C8.43161 10.2629 8.36062 9.90988 8.36 9.5532C8.36 8.83287 8.64728 8.1434 9.16119 7.6348C9.67605 7.12532 10.3712 6.83968 11.0955 6.84C11.8212 6.84 12.517 7.12621 13.031 7.6348C13.5438 8.1434 13.8322 8.83287 13.8322 9.5532Z" fill="white"/>
</svg>
