<svg width="51" height="51" viewBox="0 0 51 51" fill="none" xmlns="http://www.w3.org/2000/svg">
<circle cx="25" cy="25" r="23.25" stroke="white" stroke-width="3.5"/>
<g clip-path="url(#clip0_19_14)">
<rect x="22.4775" y="33.1287" width="6.13264" height="9.19896" fill="black"/>
<path d="M20.8957 34.3166C21.9586 33.2121 23.0291 32.6467 24.107 32.6205C23.493 33.2422 23.0813 33.8673 22.8719 34.496C22.6625 35.1247 22.5702 35.9499 22.5951 36.9717C22.6066 37.4433 22.8225 38.1206 23.2429 39.0036C23.6633 39.8866 24.0839 40.6656 24.5048 41.3407C24.9258 42.0158 25.1358 42.3365 25.135 42.3029C25.1547 42.19 25.182 42.0433 25.217 41.8627C25.2519 41.6821 25.3446 41.3371 25.4951 40.8279C25.6456 40.3186 25.8166 39.8425 26.008 39.3997C26.1995 38.9569 26.4718 38.4896 26.825 37.9978C27.1782 37.5061 27.5648 37.1203 27.9849 36.8404C28.3276 36.6074 28.5037 36.2295 28.5135 35.7068C28.5232 35.1841 28.4146 34.6475 28.1877 34.0969C27.9609 33.5462 27.6786 33.0278 27.3409 32.5417C27.9473 32.5269 28.9513 33.1541 30.3529 34.4233C30.8237 34.8388 31.1751 35.3133 31.4072 35.847C31.6393 36.3806 31.7605 36.8608 31.7709 37.2875C31.7884 38.0061 31.6074 38.7605 31.2278 39.5506C30.8482 40.3407 30.3287 41.0416 29.6695 41.6531C29.1094 42.1836 28.6595 42.7395 28.3197 43.3207C27.98 43.902 27.7658 44.4493 27.6772 44.9627C27.5886 45.4761 27.5587 45.9796 27.5876 46.4733C27.6165 46.9669 27.7031 47.4086 27.8474 47.7983C27.9917 48.1881 28.1349 48.5329 28.2771 48.8328C28.4192 49.1326 28.5483 49.3598 28.6644 49.5143L28.839 49.7628C28.6917 49.7103 28.4959 49.6308 28.2518 49.5243C28.0076 49.4179 27.5356 49.1823 26.8357 48.8173C26.1359 48.4523 25.4721 48.0697 24.8444 47.6692C24.2167 47.2688 23.5299 46.7491 22.784 46.11C22.0381 45.4708 21.4211 44.8146 20.9328 44.1411C20.2585 43.2137 19.7367 42.2012 19.3673 41.1035C18.9979 40.0058 18.8193 39.0187 18.8317 38.142C18.8432 37.6923 18.9937 37.183 19.2832 36.6142C19.5727 36.0454 19.8536 35.5863 20.126 35.237C20.3984 34.8877 20.6549 34.5809 20.8957 34.3166Z" fill="white"/>
</g>
<path d="M27.7784 30.6922V36.098H23.4537V32.8545H22.3726C21.5124 32.8545 20.6874 32.5128 20.0791 31.9045C19.4708 31.2963 19.1291 30.4713 19.1291 29.6111V26.3676C19.1291 26.0809 19.243 25.8059 19.4458 25.6031C19.6485 25.4003 19.9235 25.2864 20.2103 25.2864C20.497 25.2864 20.772 25.4003 20.9748 25.6031C21.1775 25.8059 21.2914 26.0809 21.2914 26.3676V29.6111C21.2914 30.2165 21.778 30.6922 22.3726 30.6922H23.4537V19.8807C23.4537 19.3072 23.6816 18.7572 24.0871 18.3517C24.4926 17.9462 25.0426 17.7183 25.6161 17.7183C26.1895 17.7183 26.7395 17.9462 27.145 18.3517C27.5506 18.7572 27.7784 19.3072 27.7784 19.8807V28.5299H28.8595C29.1463 28.5299 29.4213 28.416 29.624 28.2132C29.8268 28.0105 29.9407 27.7355 29.9407 27.4488V25.2864C29.9407 24.9997 30.0546 24.7247 30.2574 24.5219C30.4601 24.3192 30.7351 24.2053 31.0218 24.2053C31.3086 24.2053 31.5836 24.3192 31.7863 24.5219C31.9891 24.7247 32.103 24.9997 32.103 25.2864V27.4488C32.103 28.309 31.7613 29.134 31.153 29.7422C30.5447 30.3505 29.7198 30.6922 28.8595 30.6922H27.7784Z" fill="white"/>
<rect x="26.0423" y="11.4742" width="6.02864" height="4.3804" fill="black"/>
<path d="M28.7432 15.2035C28.8218 15.2035 28.898 15.1908 28.9665 15.1655L28.8548 15.9444H28.1876L28.5808 15.1858C28.6341 15.1985 28.6874 15.2035 28.7432 15.2035ZM18.0619 7.81545C18.3816 7.81545 18.6911 7.85351 18.988 7.92201C19.5309 6.94775 20.5686 6.29064 21.761 6.29064C21.9361 6.29064 22.1061 6.30586 22.2735 6.33123C23.1717 4.36751 25.1506 3.00507 27.4467 3.00507C30.2959 3.00507 32.6554 5.10073 33.069 7.83575C35.1266 8.03618 36.7326 9.76903 36.7326 11.8799C36.7326 14.1227 34.916 15.9418 32.6732 15.9444H31.4046L31.0697 15.2441C31.7345 15.0335 32.1683 14.5084 32.0617 14.006C31.945 13.458 31.2296 13.1459 30.4608 13.3083C29.8798 13.4326 29.4358 13.7929 29.3064 14.1988C29.2474 14.1031 29.1649 14.024 29.0668 13.9689C28.9687 13.9139 28.8582 13.8847 28.7457 13.8842H28.7407C28.761 13.803 28.7711 13.7193 28.7711 13.6331C28.7711 13.1231 28.3956 12.7019 27.9059 12.6284V11.9839C27.9059 11.8723 27.8146 11.781 27.703 11.781C27.5913 11.781 27.5 11.8723 27.5 11.9839V12.6512C27.3833 12.6816 27.2767 12.7324 27.1803 12.7983L26.6856 12.2554C26.6095 12.1717 26.4826 12.1666 26.3989 12.2427C26.3152 12.3188 26.3101 12.4457 26.3862 12.5294L26.8936 13.0876L26.8987 13.0927C26.786 13.2705 26.7314 13.479 26.7425 13.6892C26.7536 13.8994 26.8297 14.101 26.9605 14.2661C27.0912 14.4311 27.27 14.5513 27.4722 14.6102C27.6743 14.6691 27.8897 14.6636 28.0886 14.5946C28.0988 14.7367 28.1546 14.8661 28.2408 14.9701L27.7334 15.9444H17.9579V15.9418C15.7633 15.886 14 14.0897 14 11.8799C14 9.63456 15.8191 7.81545 18.0619 7.81545ZM29.7758 15.1832L29.8849 15.9444H29.2658L29.4155 14.8915C29.5043 15.0082 29.6261 15.1071 29.7758 15.1832ZM18.1228 4.21782C18.1228 4.5408 17.9945 4.85056 17.7661 5.07894C17.5377 5.30733 17.228 5.43563 16.905 5.43563C16.582 5.43563 16.2723 5.30733 16.0439 5.07894C15.8155 4.85056 15.6872 4.5408 15.6872 4.21782C15.6872 3.89483 15.8155 3.58507 16.0439 3.35669C16.2723 3.12831 16.582 3 16.905 3C17.228 3 17.5377 3.12831 17.7661 3.35669C17.9945 3.58507 18.1228 3.89483 18.1228 4.21782ZM19.7897 5.77307C19.7897 5.85303 19.774 5.93221 19.7434 6.00609C19.7128 6.07996 19.6679 6.14709 19.6114 6.20363C19.5548 6.26018 19.4877 6.30503 19.4138 6.33563C19.3399 6.36623 19.2608 6.38198 19.1808 6.38198C19.1008 6.38198 19.0217 6.36623 18.9478 6.33563C18.8739 6.30503 18.8068 6.26018 18.7502 6.20363C18.6937 6.14709 18.6488 6.07996 18.6182 6.00609C18.5876 5.93221 18.5719 5.85303 18.5719 5.77307C18.5719 5.69311 18.5876 5.61393 18.6182 5.54005C18.6488 5.46617 18.6937 5.39905 18.7502 5.34251C18.8068 5.28596 18.8739 5.24111 18.9478 5.21051C19.0217 5.17991 19.1008 5.16416 19.1808 5.16416C19.2608 5.16416 19.3399 5.17991 19.4138 5.21051C19.4877 5.24111 19.5548 5.28596 19.6114 5.34251C19.6679 5.39905 19.7128 5.46617 19.7434 5.54005C19.774 5.61393 19.7897 5.69311 19.7897 5.77307ZM30.6587 15.3279L30.953 15.9444H30.2934L30.2046 15.3177C30.3492 15.338 30.5014 15.3431 30.6587 15.3279Z" fill="white"/>
<defs>
<clipPath id="clip0_19_14">
<rect width="12.9739" height="17.2525" fill="white" transform="translate(32.0733 49.6841) rotate(178.605)"/>
</clipPath>
</defs>
</svg>
