<svg width="29" height="29" viewBox="0 0 29 29" fill="none" xmlns="http://www.w3.org/2000/svg">
<circle cx="14.44" cy="14.44" r="13" stroke="white" stroke-width="2"/>
<g clip-path="url(#clip0_19_14)">
<rect x="13.0823" y="17.7571" width="3.06893" height="4.60339" fill="black"/>
<path d="M12.2908 18.3516C12.8227 17.7989 13.3584 17.516 13.8978 17.5028C13.5905 17.8139 13.3845 18.1268 13.2797 18.4414C13.1749 18.756 13.1288 19.169 13.1412 19.6803C13.147 19.9163 13.255 20.2553 13.4654 20.6971C13.6757 21.139 13.8862 21.5288 14.0969 21.8667C14.3075 22.2045 14.4126 22.365 14.4122 22.3482C14.4221 22.2917 14.4358 22.2183 14.4532 22.1279C14.4707 22.0375 14.5171 21.8649 14.5924 21.61C14.6678 21.3552 14.7533 21.117 14.8491 20.8953C14.9449 20.6737 15.0812 20.4399 15.2579 20.1938C15.4347 19.9477 15.6282 19.7547 15.8384 19.6146C16.0099 19.498 16.098 19.3089 16.1029 19.0473C16.1078 18.7858 16.0534 18.5172 15.9399 18.2417C15.8264 17.9661 15.6851 17.7067 15.5161 17.4634C15.8196 17.456 16.322 17.7699 17.0234 18.405C17.259 18.6129 17.4349 18.8504 17.551 19.1175C17.6671 19.3845 17.7278 19.6248 17.733 19.8383C17.7418 20.198 17.6512 20.5755 17.4612 20.9709C17.2712 21.3663 17.0113 21.717 16.6814 22.023C16.4011 22.2885 16.176 22.5666 16.006 22.8575C15.8359 23.1484 15.7288 23.4223 15.6844 23.6792C15.6401 23.9361 15.6251 24.1881 15.6396 24.4351C15.654 24.6822 15.6974 24.9032 15.7696 25.0982C15.8418 25.2933 15.9135 25.4658 15.9846 25.6159C16.0557 25.766 16.1203 25.8796 16.1784 25.9569L16.2658 26.0813C16.1921 26.055 16.0941 26.0152 15.9719 25.962C15.8498 25.9087 15.6136 25.7908 15.2633 25.6082C14.9131 25.4255 14.5809 25.234 14.2668 25.0336C13.9527 24.8332 13.609 24.5731 13.2357 24.2533C12.8625 23.9335 12.5537 23.6051 12.3093 23.2681C11.9719 22.804 11.7108 22.2973 11.5259 21.748C11.341 21.1987 11.2517 20.7047 11.2579 20.266C11.2636 20.0409 11.339 19.7861 11.4838 19.5014C11.6287 19.2168 11.7693 18.987 11.9056 18.8122C12.0419 18.6374 12.1703 18.4839 12.2908 18.3516Z" fill="white"/>
</g>
<path d="M15.735 16.5379V19.2431H13.5709V17.62H13.0299C12.5994 17.62 12.1865 17.449 11.8821 17.1446C11.5777 16.8402 11.4067 16.4273 11.4067 15.9969V14.3737C11.4067 14.2303 11.4637 14.0926 11.5652 13.9912C11.6667 13.8897 11.8043 13.8327 11.9478 13.8327C12.0913 13.8327 12.2289 13.8897 12.3303 13.9912C12.4318 14.0926 12.4888 14.2303 12.4888 14.3737V15.9969C12.4888 16.2998 12.7323 16.5379 13.0299 16.5379H13.5709V11.1275C13.5709 10.8405 13.6849 10.5653 13.8878 10.3624C14.0908 10.1594 14.366 10.0454 14.653 10.0454C14.94 10.0454 15.2152 10.1594 15.4181 10.3624C15.621 10.5653 15.735 10.8405 15.735 11.1275V15.4558H16.2761C16.4196 15.4558 16.5572 15.3988 16.6587 15.2974C16.7601 15.1959 16.8171 15.0583 16.8171 14.9148V13.8327C16.8171 13.6892 16.8741 13.5516 16.9756 13.4501C17.0771 13.3487 17.2147 13.2917 17.3582 13.2917C17.5017 13.2917 17.6393 13.3487 17.7407 13.4501C17.8422 13.5516 17.8992 13.6892 17.8992 13.8327V14.9148C17.8992 15.3453 17.7282 15.7581 17.4238 16.0625C17.1194 16.3669 16.7066 16.5379 16.2761 16.5379H15.735Z" fill="white"/>
<rect x="14.8663" y="6.92069" width="3.01688" height="2.19206" fill="black"/>
<path d="M16.2179 8.78696C16.2572 8.78696 16.2953 8.78061 16.3296 8.76792L16.2737 9.1577H15.9398L16.1366 8.77807C16.1633 8.78442 16.1899 8.78696 16.2179 8.78696ZM10.8727 5.08977C11.0327 5.08977 11.1876 5.10882 11.3361 5.1431C11.6078 4.65556 12.1271 4.32672 12.7238 4.32672C12.8114 4.32672 12.8965 4.33434 12.9803 4.34704C13.4297 3.36434 14.4201 2.68254 15.5691 2.68254C16.9949 2.68254 18.1756 3.73126 18.3826 5.09993C19.4123 5.20023 20.216 6.0674 20.216 7.12373C20.216 8.24609 19.3069 9.15643 18.1845 9.1577H17.5497L17.3821 8.80727C17.7148 8.70189 17.9319 8.43908 17.8786 8.18769C17.8202 7.91345 17.4621 7.75728 17.0774 7.83854C16.7867 7.90075 16.5645 8.08104 16.4997 8.28418C16.4702 8.23627 16.4289 8.19667 16.3798 8.16913C16.3307 8.14158 16.2754 8.127 16.2191 8.12675H16.2166C16.2268 8.08612 16.2318 8.04422 16.2318 8.00105C16.2318 7.74586 16.0439 7.5351 15.7989 7.49828V7.17579C15.7989 7.11993 15.7532 7.07422 15.6973 7.07422C15.6415 7.07422 15.5957 7.11993 15.5957 7.17579V7.5097C15.5373 7.52494 15.484 7.55033 15.4358 7.58334L15.1882 7.31164C15.1501 7.26974 15.0866 7.2672 15.0447 7.30529C15.0028 7.34338 15.0003 7.40686 15.0384 7.44876L15.2923 7.72808L15.2948 7.73062C15.2384 7.81961 15.2111 7.92394 15.2167 8.02915C15.2222 8.13436 15.2603 8.23524 15.3257 8.31782C15.3912 8.4004 15.4807 8.46059 15.5818 8.49005C15.683 8.51951 15.7908 8.51678 15.8903 8.48225C15.8954 8.55335 15.9233 8.6181 15.9665 8.67015L15.7126 9.1577H10.8206V9.15643C9.7224 9.12849 8.84 8.22959 8.84 7.12373C8.84 6.0001 9.75033 5.08977 10.8727 5.08977ZM16.7346 8.7768L16.7892 9.1577H16.4794L16.5543 8.6308C16.5988 8.6892 16.6597 8.73871 16.7346 8.7768ZM10.9032 3.28943C10.9032 3.45106 10.839 3.60607 10.7247 3.72036C10.6104 3.83465 10.4554 3.89885 10.2937 3.89885C10.1321 3.89885 9.97709 3.83465 9.8628 3.72036C9.74852 3.60607 9.68431 3.45106 9.68431 3.28943C9.68431 3.1278 9.74852 2.97279 9.8628 2.8585C9.97709 2.74421 10.1321 2.68 10.2937 2.68C10.4554 2.68 10.6104 2.74421 10.7247 2.8585C10.839 2.97279 10.9032 3.1278 10.9032 3.28943ZM11.7373 4.06771C11.7373 4.10773 11.7294 4.14735 11.7141 4.18432C11.6988 4.22129 11.6764 4.25488 11.6481 4.28318C11.6198 4.31148 11.5862 4.33392 11.5492 4.34923C11.5122 4.36455 11.4726 4.37243 11.4326 4.37243C11.3926 4.37243 11.353 4.36455 11.316 4.34923C11.279 4.33392 11.2454 4.31148 11.2171 4.28318C11.1888 4.25488 11.1664 4.22129 11.1511 4.18432C11.1358 4.14735 11.1279 4.10773 11.1279 4.06771C11.1279 4.0277 11.1358 3.98808 11.1511 3.95111C11.1664 3.91414 11.1888 3.88055 11.2171 3.85225C11.2454 3.82396 11.279 3.80151 11.316 3.7862C11.353 3.77088 11.3926 3.763 11.4326 3.763C11.4726 3.763 11.5122 3.77088 11.5492 3.7862C11.5862 3.80151 11.6198 3.82396 11.6481 3.85225C11.6764 3.88055 11.6988 3.91414 11.7141 3.95111C11.7294 3.98808 11.7373 4.0277 11.7373 4.06771ZM17.1764 8.84917L17.3237 9.1577H16.9936L16.9492 8.84409C17.0215 8.85425 17.0977 8.85679 17.1764 8.84917Z" fill="white"/>
<defs>
<clipPath id="clip0_19_14">
<rect width="6.49246" height="8.63359" fill="white" transform="translate(17.8843 26.0419) rotate(178.605)"/>
</clipPath>
</defs>
</svg>
